<?xml version="1.0" encoding="iso-8859-1"?>
<!-- Generator: Adobe Illustrator 19.0.0, SVG Export Plug-In . SVG Version: 6.00 Build 0)  -->
<svg version="1.1" id="Capa_1" xmlns="http://www.w3.org/2000/svg" xmlns:xlink="http://www.w3.org/1999/xlink" x="0px" y="0px"
	 viewBox="0 0 60 60" fill="#B8BEDD" style="enable-background:new 0 0 60 60;" xml:space="preserve">
<g>
	<path d="M14.47,14.35c-2.814-0.416-5.617,0.459-7.688,2.399c-1.996,1.871-3.014,4.492-2.793,7.192
		c0.137,1.659,0.615,3.477,1.423,5.403c0.31,1.082,5.192,18.521,0.395,24.936c-1.128,1.507-2.7,2.239-4.807,2.239
		c-0.508,0-0.936,0.381-0.993,0.886c-0.059,0.504,0.271,0.973,0.766,1.088c0.112,0.026,1.154,0.258,2.784,0.258
		c2.819,0,7.396-0.693,11.96-4.339c2.204-1.76,3.97-3.981,5.249-6.601c1.606-3.29,2.212-7.11,1.752-11.047
		c-0.333-2.86-0.528-8.023,1.913-10.465c1.785-1.784,1.34-4.604,0.015-6.353C22.935,17.953,20.259,15.204,14.47,14.35z
		 M23.016,24.885c-2.885,2.885-2.944,8.178-2.485,12.111c0.416,3.556-0.125,6.992-1.563,9.937c-1.148,2.352-2.73,4.342-4.7,5.917
		c-2.711,2.166-5.447,3.164-7.709,3.593c0.302-0.292,0.585-0.613,0.849-0.965c5.521-7.381,0.14-25.962-0.093-26.75
		c-0.011-0.036-0.023-0.072-0.038-0.106c-0.738-1.751-1.174-3.381-1.294-4.844c-0.172-2.088,0.618-4.118,2.167-5.569
		c1.356-1.272,3.116-1.959,4.948-1.959c0.357,0,0.719,0.026,1.079,0.08c5.008,0.739,7.266,2.967,8.674,4.826
		C23.659,22.22,23.952,23.949,23.016,24.885z"/>
	<path d="M59,56.519c-2.106,0-3.679-0.732-4.806-2.239c-4.796-6.409,0.084-23.854,0.394-24.937c0.808-1.926,1.286-3.743,1.423-5.403
		c0.221-2.7-0.797-5.321-2.793-7.192c-2.07-1.939-4.872-2.814-7.688-2.399c-5.788,0.854-8.465,3.603-9.975,5.596
		c-1.325,1.748-1.771,4.568,0.015,6.353c2.441,2.442,2.246,7.604,1.913,10.464c-0.46,3.938,0.146,7.757,1.752,11.047
		c1.279,2.62,3.045,4.841,5.249,6.601c4.563,3.646,9.141,4.339,11.96,4.339c1.63,0,2.672-0.231,2.784-0.258
		c0.494-0.115,0.824-0.583,0.766-1.088C59.935,56.9,59.508,56.519,59,56.519z M45.731,52.849c-1.97-1.574-3.552-3.565-4.7-5.917
		c-1.438-2.945-1.979-6.381-1.563-9.938c0.459-3.932,0.399-9.225-2.485-12.11c-0.936-0.936-0.643-2.665,0.165-3.73
		c1.408-1.858,3.666-4.086,8.673-4.826c0.361-0.053,0.723-0.08,1.08-0.08c1.832,0,3.592,0.688,4.948,1.959
		c1.549,1.451,2.339,3.481,2.167,5.569c-0.12,1.463-0.556,3.093-1.294,4.844c-0.015,0.035-0.027,0.07-0.038,0.106
		c-0.232,0.787-5.613,19.369-0.093,26.75c0.264,0.352,0.547,0.673,0.849,0.965C51.179,56.013,48.442,55.015,45.731,52.849z"/>
	<path d="M45.616,8.249c0-3.991-6.735-7-15.667-7s-15.667,3.009-15.667,7s6.735,7,15.667,7S45.616,12.24,45.616,8.249z
		 M29.949,13.249c-8.054,0-13.667-2.635-13.667-5s5.613-5,13.667-5s13.667,2.635,13.667,5S38.003,13.249,29.949,13.249z"/>
	<path d="M39.699,6.993c-1.15-0.524-4.404-1.743-9.75-1.743s-8.6,1.219-9.75,1.743c-0.49,0.223-0.808,0.716-0.808,1.257
		s0.317,1.034,0.808,1.257c1.15,0.524,4.404,1.743,9.75,1.743s8.6-1.219,9.75-1.743c0.49-0.223,0.808-0.716,0.808-1.257
		S40.189,7.216,39.699,6.993z M29.949,9.249c-3.407,0-5.888-0.536-7.398-1c1.511-0.464,3.991-1,7.398-1s5.888,0.536,7.398,1
		C35.837,8.714,33.356,9.249,29.949,9.249z"/>
</g>
<g>
</g>
<g>
</g>
<g>
</g>
<g>
</g>
<g>
</g>
<g>
</g>
<g>
</g>
<g>
</g>
<g>
</g>
<g>
</g>
<g>
</g>
<g>
</g>
<g>
</g>
<g>
</g>
<g>
</g>
</svg>
